<svg xmlns="http://www.w3.org/2000/svg" xmlns:xlink="http://www.w3.org/1999/xlink" width="500" zoomAndPan="magnify" viewBox="0 0 375 525.000007" height="700" preserveAspectRatio="xMidYMid meet" version="1.0"><defs><g/><clipPath id="51d4cb11c6"><path d="M 58.03125 70.0625 L 317 70.0625 L 317 454 L 58.03125 454 Z M 58.03125 70.0625 " clip-rule="nonzero"/></clipPath></defs><g clip-path="url(#51d4cb11c6)"><path fill="#000000" d="M 296.148438 72.238281 L 295.90625 72.238281 C 293.984375 72.238281 103.738281 70.621094 84.808594 70.421875 L 84.480469 70.421875 C 66.871094 70.421875 59.644531 85.628906 58.273438 93.714844 L 58.214844 94.046875 L 58.015625 431.859375 C 58.015625 446.226562 73.011719 452.289062 80.945312 453.492188 L 81.242188 453.539062 L 81.535156 453.539062 C 86.976562 453.539062 173.140625 453.660156 235.367188 453.660156 C 267.523438 453.660156 293.324219 453.660156 298.234375 453.539062 C 312.777344 453.269531 316.84375 438.007812 316.980469 429.90625 L 316.980469 95.585938 C 316.980469 78.28125 303.355469 72.742188 296.148438 72.238281 Z M 298.078125 445.574219 C 284.0625 445.835938 91.316406 445.574219 81.894531 445.574219 C 79.820312 445.183594 65.984375 442.191406 65.992188 431.882812 L 66.191406 94.78125 C 66.65625 92.484375 70.09375 78.433594 84.488281 78.433594 L 84.726562 78.433594 C 103.414062 78.632812 289.253906 80.195312 295.683594 80.246094 C 297.496094 80.421875 309.003906 82.070312 309.003906 95.621094 L 309.003906 429.855469 C 308.996094 430.453125 308.539062 445.335938 298.078125 445.574219 Z M 298.078125 445.574219 " fill-opacity="1" fill-rule="nonzero"/></g><path fill="#000000" d="M 139.621094 205.695312 L 95.941406 205.695312 C 94.152344 205.695312 92.695312 207.402344 92.695312 209.523438 C 92.695312 211.644531 94.152344 213.351562 95.941406 213.351562 L 139.621094 213.351562 C 141.414062 213.351562 142.867188 211.636719 142.867188 209.523438 C 142.867188 207.410156 141.414062 205.695312 139.621094 205.695312 Z M 139.621094 205.695312 " fill-opacity="1" fill-rule="nonzero"/><path fill="#000000" d="M 201.910156 213.351562 C 203.710938 213.351562 205.164062 211.636719 205.164062 209.523438 C 205.164062 207.410156 203.710938 205.695312 201.910156 205.695312 L 158.269531 205.695312 C 156.472656 205.695312 155.015625 207.402344 155.015625 209.523438 C 155.015625 211.644531 156.472656 213.351562 158.269531 213.351562 Z M 201.910156 213.351562 " fill-opacity="1" fill-rule="nonzero"/><path fill="#000000" d="M 269.820312 213.351562 C 271.613281 213.351562 273.066406 211.636719 273.066406 209.523438 C 273.066406 207.410156 271.613281 205.695312 269.820312 205.695312 L 226.179688 205.695312 C 224.390625 205.695312 222.933594 207.402344 222.933594 209.523438 C 222.933594 211.644531 224.390625 213.351562 226.179688 213.351562 Z M 269.820312 213.351562 " fill-opacity="1" fill-rule="nonzero"/><path fill="#000000" d="M 276.824219 240.578125 C 273.273438 237.640625 268.527344 237.761719 267.386719 237.839844 L 235.8125 237.839844 C 227.671875 237.839844 224.71875 243.257812 224.71875 246.902344 L 224.71875 283.046875 C 224.71875 290.496094 230.277344 293.222656 234.035156 293.246094 C 235.125 293.246094 247.886719 293.535156 258.4375 293.535156 C 264.09375 293.535156 269.15625 293.457031 271.367188 293.222656 C 272.003906 293.183594 272.628906 293.085938 273.246094 292.921875 C 273.859375 292.761719 274.453125 292.546875 275.027344 292.269531 C 275.601562 291.992188 276.144531 291.664062 276.652344 291.28125 C 277.160156 290.898438 277.628906 290.472656 278.054688 289.996094 C 278.480469 289.523438 278.855469 289.015625 279.183594 288.46875 C 279.507812 287.921875 279.777344 287.347656 279.992188 286.75 C 280.207031 286.148438 280.363281 285.535156 280.457031 284.90625 C 280.550781 284.277344 280.582031 283.644531 280.554688 283.007812 C 280.609375 280.710938 281.242188 255.441406 280.554688 247.882812 C 280.457031 246.464844 280.082031 245.121094 279.433594 243.851562 C 278.789062 242.582031 277.917969 241.492188 276.824219 240.578125 Z M 273.425781 283.199219 C 273.472656 284.960938 272.53125 285.953125 270.632812 286.152344 C 265.785156 286.652344 244.65625 286.359375 234.160156 286.152344 L 234.105469 286.152344 C 231.808594 286.023438 231.808594 283.804688 231.808594 283.089844 L 231.808594 247.027344 C 231.871094 246.390625 232.390625 244.996094 235.789062 244.996094 L 267.84375 244.996094 C 268.425781 244.9375 270.90625 244.996094 272.277344 246.113281 C 273.035156 246.777344 273.414062 247.609375 273.417969 248.613281 C 274.109375 255.96875 273.417969 282.738281 273.417969 283.015625 L 273.417969 283.257812 Z M 273.425781 283.199219 " fill-opacity="1" fill-rule="nonzero"/><path fill="#000000" d="M 154.03125 283.496094 C 154.03125 290.949219 159.582031 293.671875 163.339844 293.6875 C 164.425781 293.6875 177.1875 293.980469 187.738281 293.980469 C 193.398438 293.980469 198.417969 293.902344 200.671875 293.671875 C 201.304688 293.636719 201.933594 293.535156 202.546875 293.375 C 203.164062 293.214844 203.757812 292.996094 204.332031 292.71875 C 204.90625 292.445312 205.445312 292.113281 205.957031 291.734375 C 206.464844 291.351562 206.933594 290.921875 207.359375 290.449219 C 207.785156 289.976562 208.160156 289.464844 208.484375 288.917969 C 208.8125 288.375 209.082031 287.800781 209.296875 287.199219 C 209.511719 286.601562 209.664062 285.988281 209.761719 285.355469 C 209.855469 284.726562 209.886719 284.09375 209.859375 283.457031 C 209.917969 281.160156 210.546875 255.894531 209.859375 248.335938 C 209.761719 246.917969 209.394531 245.578125 208.753906 244.308594 C 208.113281 243.042969 207.25 241.949219 206.167969 241.03125 C 202.609375 238.082031 197.859375 238.214844 196.71875 238.289062 L 165.125 238.289062 C 156.984375 238.289062 154.03125 243.710938 154.03125 247.347656 Z M 161.132812 247.433594 C 161.195312 246.796875 161.714844 245.394531 165.125 245.394531 L 197.171875 245.394531 C 197.753906 245.34375 200.234375 245.394531 201.605469 246.519531 C 202.359375 247.179688 202.738281 248.007812 202.746094 249.007812 C 203.433594 256.375 202.746094 283.144531 202.746094 283.414062 L 202.746094 283.664062 C 202.746094 285.425781 201.84375 286.421875 199.941406 286.613281 C 195.105469 287.117188 173.964844 286.828125 163.46875 286.613281 L 163.421875 286.613281 C 161.125 286.484375 161.125 284.261719 161.125 283.550781 Z M 161.132812 247.433594 " fill-opacity="1" fill-rule="nonzero"/><path fill="#000000" d="M 206.136719 311.820312 C 202.578125 308.878906 197.832031 309.003906 196.695312 309.085938 L 165.125 309.085938 C 156.984375 309.085938 154.03125 314.5 154.03125 318.144531 L 154.03125 354.285156 C 154.03125 361.746094 159.582031 364.464844 163.339844 364.484375 C 164.425781 364.484375 177.1875 364.777344 187.738281 364.777344 C 193.398438 364.777344 198.417969 364.699219 200.671875 364.464844 C 201.304688 364.425781 201.933594 364.324219 202.546875 364.164062 C 203.164062 364.003906 203.757812 363.785156 204.332031 363.511719 C 204.90625 363.234375 205.445312 362.90625 205.957031 362.523438 C 206.464844 362.140625 206.933594 361.710938 207.359375 361.238281 C 207.785156 360.765625 208.160156 360.257812 208.484375 359.710938 C 208.8125 359.164062 209.082031 358.589844 209.296875 357.992188 C 209.511719 357.390625 209.664062 356.777344 209.761719 356.148438 C 209.855469 355.515625 209.886719 354.882812 209.859375 354.25 C 209.917969 351.953125 210.554688 326.683594 209.859375 319.125 C 209.757812 317.707031 209.386719 316.363281 208.738281 315.09375 C 208.09375 313.828125 207.226562 312.734375 206.136719 311.820312 Z M 202.738281 354.457031 C 202.738281 356.214844 201.835938 357.203125 199.9375 357.402344 C 195.097656 357.910156 173.957031 357.609375 163.460938 357.402344 L 163.414062 357.402344 C 161.117188 357.273438 161.117188 355.050781 161.117188 354.339844 L 161.117188 318.230469 C 161.179688 317.59375 161.707031 316.191406 165.109375 316.191406 L 197.171875 316.191406 C 197.753906 316.132812 200.234375 316.191406 201.605469 317.320312 C 202.359375 317.976562 202.742188 318.804688 202.746094 319.808594 C 203.441406 327.164062 202.746094 353.941406 202.746094 354.210938 L 202.746094 354.457031 Z M 202.738281 354.457031 " fill-opacity="1" fill-rule="nonzero"/><path fill="#000000" d="M 204.117188 378.890625 C 200.554688 375.949219 195.816406 376.070312 194.675781 376.148438 L 163.101562 376.148438 C 154.964844 376.148438 152.007812 381.570312 152.007812 385.214844 L 152.007812 421.355469 C 152.007812 428.804688 157.566406 431.53125 161.324219 431.554688 C 162.414062 431.554688 175.175781 431.84375 185.726562 431.84375 C 191.382812 431.84375 196.40625 431.769531 198.65625 431.53125 C 199.292969 431.492188 199.917969 431.394531 200.535156 431.234375 C 201.148438 431.070312 201.742188 430.851562 202.316406 430.578125 C 202.890625 430.300781 203.429688 429.96875 203.941406 429.589844 C 204.449219 429.207031 204.917969 428.777344 205.34375 428.304688 C 205.769531 427.832031 206.144531 427.324219 206.46875 426.777344 C 206.796875 426.230469 207.066406 425.65625 207.28125 425.058594 C 207.496094 424.457031 207.648438 423.84375 207.746094 423.214844 C 207.839844 422.585938 207.871094 421.953125 207.84375 421.316406 C 207.898438 419.019531 208.535156 393.75 207.84375 386.195312 C 207.746094 384.773438 207.371094 383.429688 206.726562 382.160156 C 206.078125 380.894531 205.207031 379.800781 204.117188 378.890625 Z M 200.714844 421.507812 C 200.761719 423.269531 199.820312 424.265625 197.921875 424.464844 C 193.074219 424.960938 171.945312 424.671875 161.449219 424.464844 L 161.394531 424.464844 C 159.097656 424.332031 159.097656 422.113281 159.097656 421.402344 L 159.097656 385.296875 C 159.160156 384.65625 159.679688 383.261719 163.078125 383.261719 L 195.136719 383.261719 C 195.71875 383.199219 198.199219 383.261719 199.566406 384.378906 C 200.320312 385.039062 200.703125 385.871094 200.707031 386.875 C 201.398438 394.234375 200.707031 421.011719 200.707031 421.277344 L 200.707031 421.523438 Z M 200.714844 421.507812 " fill-opacity="1" fill-rule="nonzero"/><path fill="#000000" d="M 138.800781 311.4375 C 135.242188 308.488281 130.496094 308.621094 129.363281 308.695312 L 97.789062 308.695312 C 89.648438 308.695312 86.695312 314.117188 86.695312 317.753906 L 86.695312 353.902344 C 86.695312 361.355469 92.246094 364.082031 96.003906 364.101562 C 97.089844 364.101562 109.855469 364.394531 120.402344 364.394531 C 126.0625 364.394531 131.085938 364.316406 133.335938 364.082031 C 133.96875 364.042969 134.597656 363.941406 135.210938 363.78125 C 135.828125 363.621094 136.421875 363.402344 136.996094 363.128906 C 137.570312 362.851562 138.109375 362.523438 138.621094 362.140625 C 139.128906 361.757812 139.597656 361.328125 140.023438 360.855469 C 140.449219 360.382812 140.824219 359.875 141.148438 359.328125 C 141.476562 358.78125 141.746094 358.207031 141.960938 357.609375 C 142.175781 357.007812 142.328125 356.394531 142.425781 355.765625 C 142.519531 355.132812 142.550781 354.5 142.523438 353.867188 C 142.582031 351.570312 143.21875 326.300781 142.523438 318.742188 C 142.421875 317.324219 142.050781 315.980469 141.40625 314.710938 C 140.757812 313.445312 139.890625 312.351562 138.800781 311.4375 Z M 135.433594 354.058594 C 135.472656 355.816406 134.53125 356.8125 132.628906 357.011719 C 127.792969 357.511719 106.652344 357.21875 96.15625 357.011719 L 96.109375 357.011719 C 93.8125 356.882812 93.8125 354.660156 93.8125 353.949219 L 93.8125 317.886719 C 93.875 317.25 94.402344 315.855469 97.804688 315.855469 L 129.851562 315.855469 C 130.433594 315.792969 132.914062 315.855469 134.285156 316.972656 C 135.039062 317.632812 135.421875 318.464844 135.425781 319.46875 C 136.121094 326.828125 135.425781 353.597656 135.425781 353.875 L 135.425781 354.117188 Z M 135.433594 354.058594 " fill-opacity="1" fill-rule="nonzero"/><path fill="#000000" d="M 135.691406 379.363281 C 132.132812 376.414062 127.394531 376.546875 126.253906 376.621094 L 94.679688 376.621094 C 86.539062 376.621094 83.585938 382.042969 83.585938 385.679688 L 83.585938 421.835938 C 83.585938 429.289062 89.144531 432.015625 92.902344 432.035156 C 93.988281 432.035156 106.753906 432.328125 117.304688 432.328125 C 122.960938 432.328125 127.984375 432.25 130.226562 432.015625 C 130.863281 431.976562 131.488281 431.878906 132.105469 431.71875 C 132.71875 431.558594 133.316406 431.339844 133.890625 431.0625 C 134.460938 430.785156 135.003906 430.457031 135.511719 430.074219 C 136.023438 429.695312 136.492188 429.265625 136.917969 428.792969 C 137.34375 428.320312 137.71875 427.808594 138.042969 427.261719 C 138.371094 426.714844 138.640625 426.140625 138.855469 425.542969 C 139.070312 424.941406 139.222656 424.328125 139.316406 423.699219 C 139.410156 423.066406 139.445312 422.433594 139.414062 421.800781 C 139.476562 419.503906 140.109375 394.234375 139.414062 386.675781 C 139.316406 385.253906 138.945312 383.910156 138.300781 382.640625 C 137.652344 381.371094 136.785156 380.277344 135.691406 379.363281 Z M 132.292969 421.984375 C 132.339844 423.746094 131.398438 424.738281 129.5 424.9375 C 124.652344 425.4375 103.523438 425.144531 93.019531 424.9375 L 92.972656 424.9375 C 90.675781 424.808594 90.675781 422.589844 90.675781 421.875 L 90.675781 385.8125 C 90.734375 385.175781 91.257812 383.78125 94.65625 383.78125 L 126.703125 383.78125 C 127.292969 383.71875 129.765625 383.78125 131.144531 384.898438 C 131.898438 385.5625 132.277344 386.394531 132.285156 387.394531 C 132.976562 394.753906 132.285156 421.523438 132.285156 421.800781 L 132.285156 422.042969 Z M 132.292969 421.984375 " fill-opacity="1" fill-rule="nonzero"/><path fill="#000000" d="M 138.800781 242.5625 C 135.242188 239.613281 130.496094 239.746094 129.363281 239.820312 L 97.789062 239.820312 C 89.648438 239.820312 86.695312 245.242188 86.695312 248.878906 L 86.695312 285.027344 C 86.695312 292.480469 92.246094 295.203125 96.003906 295.21875 C 97.089844 295.21875 109.855469 295.511719 120.402344 295.511719 C 126.0625 295.511719 131.085938 295.433594 133.335938 295.203125 C 133.96875 295.167969 134.597656 295.066406 135.210938 294.90625 C 135.828125 294.746094 136.421875 294.527344 136.996094 294.25 C 137.570312 293.976562 138.109375 293.644531 138.621094 293.265625 C 139.128906 292.882812 139.597656 292.453125 140.023438 291.980469 C 140.449219 291.507812 140.824219 290.996094 141.148438 290.449219 C 141.476562 289.90625 141.746094 289.332031 141.960938 288.730469 C 142.175781 288.132812 142.328125 287.519531 142.425781 286.886719 C 142.519531 286.257812 142.550781 285.625 142.523438 284.988281 C 142.582031 282.691406 143.21875 257.425781 142.523438 249.867188 C 142.421875 248.449219 142.050781 247.105469 141.40625 245.835938 C 140.757812 244.570312 139.890625 243.476562 138.800781 242.5625 Z M 135.433594 285.179688 C 135.472656 286.941406 134.53125 287.9375 132.628906 288.128906 C 127.792969 288.636719 106.652344 288.34375 96.15625 288.128906 L 96.109375 288.128906 C 93.8125 288 93.8125 285.777344 93.8125 285.066406 L 93.8125 249 C 93.875 248.367188 94.402344 246.964844 97.804688 246.964844 L 129.851562 246.964844 C 130.433594 246.910156 132.914062 246.964844 134.285156 248.089844 C 135.039062 248.75 135.417969 249.578125 135.425781 250.578125 C 136.121094 257.945312 135.425781 284.714844 135.425781 284.984375 L 135.425781 285.234375 Z M 135.433594 285.179688 " fill-opacity="1" fill-rule="nonzero"/><path fill="#000000" d="M 279.550781 326.796875 C 279.222656 317.9375 277.253906 311.820312 273.578125 308.613281 C 272.683594 307.769531 271.648438 307.15625 270.480469 306.765625 C 269.316406 306.375 268.121094 306.25 266.894531 306.382812 L 236.847656 306.382812 C 228.484375 306.382812 226.25 317.289062 226.25 323.734375 L 226.25 412.234375 C 226.25 430.941406 233.347656 432.3125 235.078125 432.367188 C 237.144531 432.480469 248.566406 433.085938 258.269531 433.085938 C 263.878906 433.085938 268.910156 432.878906 271.214844 432.265625 C 279.476562 430.070312 279.636719 415.351562 279.550781 412.210938 C 279.589844 408.589844 280.226562 345.265625 279.550781 326.796875 Z M 272.769531 412.335938 C 272.875 417.695312 271.550781 424.234375 269.707031 424.730469 C 265.65625 425.8125 246.738281 425.261719 235.621094 424.648438 C 234.855469 424.164062 233.070312 421.109375 233.070312 412.234375 L 233.070312 323.742188 C 233.070312 323.644531 233.332031 314.117188 236.898438 314.117188 L 267.523438 314.117188 L 267.875 314.035156 C 268.492188 314.070312 269.019531 314.300781 269.460938 314.730469 C 270.570312 315.710938 272.523438 318.628906 272.800781 327.121094 C 273.472656 345.558594 272.800781 411.523438 272.800781 412.191406 L 272.800781 412.335938 Z M 272.769531 412.335938 " fill-opacity="1" fill-rule="nonzero"/><path fill="#000000" d="M 102.984375 174.117188 L 267.453125 174.117188 C 268.308594 174.117188 269.15625 174.03125 269.992188 173.867188 C 270.832031 173.699219 271.644531 173.453125 272.4375 173.125 C 273.226562 172.796875 273.976562 172.398438 274.6875 171.921875 C 275.398438 171.445312 276.054688 170.90625 276.660156 170.304688 C 277.261719 169.699219 277.800781 169.042969 278.277344 168.332031 C 278.75 167.621094 279.152344 166.871094 279.480469 166.078125 C 279.808594 165.289062 280.054688 164.476562 280.21875 163.636719 C 280.386719 162.800781 280.46875 161.953125 280.46875 161.097656 L 280.46875 136.28125 C 280.46875 135.425781 280.386719 134.582031 280.21875 133.742188 C 280.054688 132.902344 279.808594 132.089844 279.480469 131.300781 C 279.152344 130.511719 278.75 129.761719 278.277344 129.050781 C 277.800781 128.339844 277.261719 127.683594 276.660156 127.078125 C 276.054688 126.472656 275.398438 125.933594 274.6875 125.457031 C 273.976562 124.984375 273.226562 124.582031 272.4375 124.253906 C 271.644531 123.929688 270.832031 123.683594 269.992188 123.515625 C 269.15625 123.347656 268.308594 123.265625 267.453125 123.265625 L 102.984375 123.265625 C 102.132812 123.265625 101.285156 123.347656 100.445312 123.515625 C 99.609375 123.683594 98.792969 123.929688 98.003906 124.253906 C 97.214844 124.582031 96.464844 124.984375 95.753906 125.457031 C 95.042969 125.933594 94.386719 126.472656 93.78125 127.078125 C 93.179688 127.683594 92.640625 128.339844 92.164062 129.050781 C 91.6875 129.761719 91.289062 130.511719 90.960938 131.300781 C 90.632812 132.089844 90.386719 132.902344 90.222656 133.742188 C 90.054688 134.582031 89.96875 135.425781 89.96875 136.28125 L 89.96875 161.097656 C 89.96875 161.953125 90.054688 162.800781 90.222656 163.636719 C 90.386719 164.476562 90.632812 165.289062 90.960938 166.078125 C 91.289062 166.871094 91.6875 167.621094 92.164062 168.332031 C 92.640625 169.042969 93.179688 169.699219 93.78125 170.304688 C 94.386719 170.90625 95.042969 171.445312 95.753906 171.921875 C 96.464844 172.398438 97.214844 172.796875 98.003906 173.125 C 98.792969 173.453125 99.609375 173.699219 100.445312 173.867188 C 101.285156 174.03125 102.132812 174.117188 102.984375 174.117188 Z M 97.625 136.28125 C 97.625 135.929688 97.660156 135.582031 97.730469 135.238281 C 97.796875 134.890625 97.898438 134.554688 98.035156 134.230469 C 98.167969 133.90625 98.335938 133.597656 98.53125 133.304688 C 98.726562 133.011719 98.949219 132.742188 99.195312 132.492188 C 99.445312 132.242188 99.714844 132.019531 100.007812 131.824219 C 100.300781 131.628906 100.609375 131.464844 100.933594 131.332031 C 101.261719 131.195312 101.59375 131.09375 101.941406 131.023438 C 102.285156 130.957031 102.632812 130.921875 102.984375 130.921875 L 267.453125 130.921875 C 267.808594 130.921875 268.15625 130.957031 268.5 131.023438 C 268.84375 131.09375 269.179688 131.195312 269.503906 131.328125 C 269.832031 131.464844 270.140625 131.628906 270.433594 131.824219 C 270.726562 132.019531 270.996094 132.242188 271.246094 132.492188 C 271.492188 132.742188 271.714844 133.011719 271.910156 133.304688 C 272.105469 133.597656 272.273438 133.90625 272.40625 134.230469 C 272.539062 134.554688 272.644531 134.890625 272.710938 135.238281 C 272.78125 135.582031 272.8125 135.929688 272.8125 136.28125 L 272.8125 161.097656 C 272.8125 161.449219 272.78125 161.800781 272.710938 162.144531 C 272.640625 162.488281 272.539062 162.824219 272.40625 163.148438 C 272.273438 163.476562 272.105469 163.785156 271.910156 164.078125 C 271.714844 164.367188 271.492188 164.640625 271.246094 164.890625 C 270.996094 165.136719 270.726562 165.359375 270.433594 165.554688 C 270.140625 165.75 269.832031 165.914062 269.503906 166.050781 C 269.179688 166.183594 268.84375 166.285156 268.5 166.355469 C 268.15625 166.425781 267.808594 166.457031 267.453125 166.457031 L 102.984375 166.457031 C 102.632812 166.457031 102.285156 166.425781 101.941406 166.355469 C 101.59375 166.285156 101.261719 166.183594 100.933594 166.050781 C 100.609375 165.914062 100.300781 165.75 100.007812 165.554688 C 99.714844 165.359375 99.445312 165.136719 99.195312 164.890625 C 98.949219 164.640625 98.726562 164.367188 98.53125 164.078125 C 98.335938 163.785156 98.167969 163.476562 98.035156 163.148438 C 97.898438 162.824219 97.796875 162.488281 97.730469 162.144531 C 97.660156 161.800781 97.625 161.449219 97.625 161.097656 Z M 97.625 136.28125 " fill-opacity="1" fill-rule="nonzero"/><g fill="#000000" fill-opacity="1"><g transform="translate(187.499992, 163.738709)"><g><path d="M 11.625 0.40625 C 8.5625 0.40625 6.132812 -0.238281 4.34375 -1.53125 C 2.550781 -2.820312 1.414062 -4.648438 0.9375 -7.015625 L 5.203125 -9 L 5.65625 -8.921875 C 6.132812 -7.347656 6.816406 -6.203125 7.703125 -5.484375 C 8.597656 -4.765625 9.835938 -4.40625 11.421875 -4.40625 C 12.953125 -4.40625 14.117188 -4.757812 14.921875 -5.46875 C 15.734375 -6.1875 16.140625 -7.226562 16.140625 -8.59375 C 16.140625 -9.9375 15.738281 -10.960938 14.9375 -11.671875 C 14.144531 -12.390625 12.972656 -12.75 11.421875 -12.75 L 7.140625 -12.75 L 7.140625 -17.140625 L 10.875 -17.140625 C 12.144531 -17.140625 13.15625 -17.457031 13.90625 -18.09375 C 14.664062 -18.726562 15.046875 -19.632812 15.046875 -20.8125 C 15.046875 -21.988281 14.691406 -22.867188 13.984375 -23.453125 C 13.273438 -24.046875 12.296875 -24.34375 11.046875 -24.34375 C 9.773438 -24.34375 8.648438 -24.039062 7.671875 -23.4375 C 6.691406 -22.84375 5.898438 -22.039062 5.296875 -21.03125 L 4.859375 -20.953125 L 1.890625 -24.40625 C 2.890625 -25.757812 4.175781 -26.847656 5.75 -27.671875 C 7.320312 -28.492188 9.191406 -28.90625 11.359375 -28.90625 C 14.347656 -28.90625 16.628906 -28.28125 18.203125 -27.03125 C 19.773438 -25.789062 20.5625 -24.039062 20.5625 -21.78125 C 20.5625 -20.414062 20.242188 -19.25 19.609375 -18.28125 C 18.972656 -17.3125 18.054688 -16.472656 16.859375 -15.765625 L 16.859375 -15.359375 C 20.148438 -14.203125 21.796875 -11.863281 21.796875 -8.34375 C 21.796875 -6.570312 21.414062 -5.03125 20.65625 -3.71875 C 19.90625 -2.40625 18.769531 -1.390625 17.25 -0.671875 C 15.726562 0.046875 13.851562 0.40625 11.625 0.40625 Z M 11.625 0.40625 "/></g></g></g><g fill="#000000" fill-opacity="1"><g transform="translate(211.085571, 163.738709)"><g><path d="M 5.5 0.171875 C 4.8125 0.171875 4.203125 0.0351562 3.671875 -0.234375 C 3.148438 -0.515625 2.75 -0.898438 2.46875 -1.390625 C 2.1875 -1.890625 2.046875 -2.453125 2.046875 -3.078125 C 2.046875 -3.703125 2.1875 -4.257812 2.46875 -4.75 C 2.75 -5.25 3.148438 -5.640625 3.671875 -5.921875 C 4.203125 -6.210938 4.8125 -6.359375 5.5 -6.359375 C 6.195312 -6.359375 6.804688 -6.21875 7.328125 -5.9375 C 7.859375 -5.65625 8.265625 -5.265625 8.546875 -4.765625 C 8.828125 -4.273438 8.96875 -3.71875 8.96875 -3.09375 C 8.96875 -2.144531 8.648438 -1.363281 8.015625 -0.75 C 7.390625 -0.132812 6.550781 0.171875 5.5 0.171875 Z M 5.5 0.171875 "/></g></g></g><g fill="#000000" fill-opacity="1"><g transform="translate(222.098678, 163.738709)"><g><path d="M 1.5 0 L 1.5 -4.65625 L 8.375 -4.65625 L 8.375 -22.390625 L 7.9375 -22.515625 C 6.957031 -22.046875 5.992188 -21.675781 5.046875 -21.40625 C 4.109375 -21.132812 3.035156 -20.921875 1.828125 -20.765625 L 1.828125 -25.578125 C 4.984375 -26.234375 7.539062 -27.207031 9.5 -28.5 L 13.953125 -28.5 L 13.953125 -4.65625 L 20.09375 -4.65625 L 20.09375 0 Z M 1.5 0 "/></g></g></g><g fill="#000000" fill-opacity="1"><g transform="translate(243.130782, 163.738709)"><g><path d="M 19.359375 0 L 13.953125 0 L 13.953125 -6.203125 L 0.96875 -6.203125 L 0.96875 -10.734375 L 12.140625 -28.5 L 19.359375 -28.5 L 19.359375 -10.734375 L 23.75 -10.734375 L 23.75 -6.203125 L 19.359375 -6.203125 Z M 6.75 -11.15625 L 6.921875 -10.734375 L 13.953125 -10.734375 L 13.953125 -21.78125 L 13.515625 -21.859375 Z M 6.75 -11.15625 "/></g></g></g></svg>